<?xml version="1.0" encoding="UTF-8"?>
<svg xmlns="http://www.w3.org/2000/svg" width="128" height="128" viewBox="0 0 33.867 33.867" >
  <style>@media (prefers-color-scheme: dark) { :root { filter: invert(100%); } }</style>
  <path d="m1.0583 1.0583h31.75v31.75h-31.75z" fill="#fff" stroke="#000" stroke-width="2.1167"/>
  <g stroke-width=".32189">
    <path d="m14.618 7.159h-10.384v19.549h2.6954v-8.5969h6.3838v-2.1279h-6.3838v-6.6675h7.3768z"/>
    <path d="m22.966 6.8185c-3.6033 0-6.1568 2.0996-6.1568 5.1071 0 3.0359 1.9861 4.4829 5.788 5.6461 3.3196 1.0214 4.2275 1.8726 4.2275 3.7735 0 2.3549-1.901 3.4898-4.1991 3.4898-2.1279 0-3.6601-0.76606-5.107-1.9861l-1.5037 1.674c1.6172 1.5889 3.8303 2.5252 6.6392 2.5252 4.3977 0 6.9796-2.3833 6.9796-5.788 0-3.7452-2.667-4.9652-5.788-5.9299-3.5182-1.0782-4.2842-1.8726-4.2842-3.5182 0-1.8726 1.5605-2.7805 3.5182-2.7805 1.6172 0 2.9791 0.5107 4.4545 1.7024l1.4754-1.6456c-1.6456-1.4754-3.348-2.2698-6.0433-2.2698z"/>
  </g>
</svg>